<?xml version="1.0" standalone="no"?>
<!DOCTYPE svg PUBLIC "-//W3C//DTD SVG 1.1//EN" "http://www.w3.org/Graphics/SVG/1.1/DTD/svg11.dtd" >
<svg xmlns="http://www.w3.org/2000/svg">
<metadata>
Created by FontForge 20120731 at Fri Apr 22 09:32:43 2016
 By admin
</metadata>
<defs>
<font id="iconfont" horiz-adv-x="1024" >
  <font-face
    font-family="iconfont"
    font-weight="500"
    font-stretch="normal"
    units-per-em="1024"
    panose-1="2 0 6 3 0 0 0 0 0 0"
    ascent="896"
    descent="-128"
    x-height="792"
    bbox="-0.4 -224 1154.71 896"
    underline-thickness="50"
    underline-position="-100"
    unicode-range="U+0078-E642"
  />
<missing-glyph horiz-adv-x="374"
d="M34 0v682h272v-682h-272zM68 34h204v614h-204v-614z" />
    <glyph glyph-name=".notdef" horiz-adv-x="374"
d="M34 0v682h272v-682h-272zM68 34h204v614h-204v-614z" />
    <glyph glyph-name=".null" horiz-adv-x="0"
 />
    <glyph glyph-name="nonmarkingreturn" horiz-adv-x="341"
 />
    <glyph glyph-name="x" unicode="x" horiz-adv-x="1001"
d="M281 543q-27 -1 -53 -1h-83q-18 0 -36.5 -6t-32.5 -18.5t-23 -32t-9 -45.5v-76h912v41q0 16 -0.5 30t-0.5 18q0 13 -5 29t-17 29.5t-31.5 22.5t-49.5 9h-133v-97h-438v97zM955 310v-52q0 -23 0.5 -52t0.5 -58t-10.5 -47.5t-26 -30t-33 -16t-31.5 -4.5q-14 -1 -29.5 -0.5
t-29.5 0.5h-32l-45 128h-439l-44 -128h-29h-34q-20 0 -45 1q-25 0 -41 9.5t-25.5 23t-13.5 29.5t-4 30v167h911zM163 247q-12 0 -21 -8.5t-9 -21.5t9 -21.5t21 -8.5q13 0 22 8.5t9 21.5t-9 21.5t-22 8.5zM316 123q-8 -26 -14 -48q-5 -19 -10.5 -37t-7.5 -25t-3 -15t1 -14.5
t9.5 -10.5t21.5 -4h37h67h81h80h64h36q23 0 34 12t2 38q-5 13 -9.5 30.5t-9.5 34.5q-5 19 -11 39h-368zM336 498v228q0 11 2.5 23t10 21.5t20.5 15.5t34 6h188q31 0 51.5 -14.5t20.5 -52.5v-227h-327z" />
    <glyph glyph-name="uniE600" unicode="&#xe600;" horiz-adv-x="1000"
d="M941 42l-212 216q-5 6 -12 8q73 98 73 221q0 98 -47.5 182t-129.5 132.5t-179 48.5t-179 -48.5t-129.5 -132.5t-47.5 -182.5t47.5 -182.5t129.5 -132.5t179 -48.5q134 0 235 91q3 -6 7 -10l212 -217q11 -11 26.5 -11t26.5 11.5t11 27t-11 27.5zM434 180q-124 0 -212 90
t-88 217t88 216.5t212 89.5t212 -89.5t88 -216.5t-88 -217t-212 -90z" />
    <glyph glyph-name="uniE601" unicode="&#xe601;"
d="M132 600l380 -432l380 432h-760z" />
    <glyph glyph-name="uniE602" unicode="&#xe602;"
d="M512 530q-61 0 -103.5 -42.5t-42.5 -103.5t42.5 -103.5t103.5 -42.5t103.5 42.5t42.5 103.5t-42.5 103.5t-103.5 42.5zM512 311q-30 0 -51.5 21.5t-21.5 51.5t21.5 51.5t51.5 21.5t51.5 -21.5t21.5 -51.5t-21.5 -51.5t-51.5 -21.5zM1024 421h-75q-13 159 -127 273
t-273 127v75h-74v-75q-159 -13 -273 -127t-127 -273h-75v-74h75q13 -159 127 -273t273 -127v-75h74v75q159 13 273 127t127 273h75v74zM549 20v71h-74v-71q-129 13 -221.5 105.5t-105.5 221.5h71v74h-71q13 129 105.5 221.5t221.5 105.5v-71h74v71q129 -13 221.5 -105.5
t105.5 -221.5h-71v-74h71q-13 -129 -105.5 -221.5t-221.5 -105.5z" />
    <glyph glyph-name="uniE603" unicode="&#xe603;"
d="M478 317h68v269h-68v-269zM512 754q-101 0 -186 -49.5t-134.5 -134.5t-49.5 -186t49.5 -186t134.5 -134.5t186 -49.5t186 49.5t134.5 134.5t49.5 186t-49.5 186t-134.5 134.5t-186 49.5zM512 81q-126 0 -214.5 88.5t-88.5 214.5t88.5 214.5t214.5 88.5t214.5 -88.5
t88.5 -214.5t-88.5 -214.5t-214.5 -88.5zM478 182h68v67h-68v-67z" />
    <glyph glyph-name="uniE604" unicode="&#xe604;"
d="M512 832q-185 0 -316.5 -131.5t-131.5 -316.5t131.5 -316.5t316.5 -131.5t316.5 131.5t131.5 316.5t-131.5 316.5t-316.5 131.5zM512 0q-159 0 -271.5 112.5t-112.5 271.5t112.5 271.5t271.5 112.5t271.5 -112.5t112.5 -271.5t-112.5 -271.5t-271.5 -112.5zM670 588
l-158 -159l-158 159l-46 -46l159 -158l-159 -158l46 -46l158 159l158 -159l46 46l-159 158l159 158z" />
    <glyph glyph-name="uniE605" unicode="&#xe605;"
d="M164 420h696v-72h-696v72zM476 732h72v-696h-72v696z" />
    <glyph glyph-name="uniE606" unicode="&#xe606;"
d="M512 833q-91 0 -173.5 -35t-142.5 -95t-95.5 -143t-35.5 -174t35.5 -174t95.5 -143t142.5 -95.5t173.5 -35.5t174 35.5t143 95.5t95.5 143t35.5 174t-35.5 174t-95.5 143t-143 95t-174 35zM512 -6q-106 0 -196 52.5t-142.5 143t-52.5 196.5t52.5 196.5t142.5 142.5
t196.5 52t196.5 -52t142.5 -142.5t52.5 -196.5t-52.5 -196.5t-142.5 -143t-197 -52.5zM459 185l-210 203l52 54l154 -148l265 292l56 -50zM459 185z" />
    <glyph glyph-name="uniE607" unicode="&#xe607;" horiz-adv-x="1025"
d="M1013 324q-3 42 -28 76.5t-64 52.5l-47 218q-12 60 -64.5 102.5t-114.5 42.5h-366q-62 0 -114.5 -42.5t-64.5 -102.5l-47 -218q-39 -18 -64 -52.5t-28 -76.5l-11 -140q-3 -45 20 -82.5t64 -54.5q9 -37 39 -60.5t69 -23.5q36 0 64.5 20.5t39.5 53.5h432q11 -33 39.5 -53.5
t64.5 -20.5q39 0 69 23.5t39 60.5q41 17 64 54.5t20 82.5zM905 101q-10 -2 -17 -10t-7 -19q-1 -19 -15 -32.5t-34 -13.5q-19 0 -33 12.5t-15 32.5q-1 12 -10 20t-21 8h-482q-12 0 -21 -8t-10 -20q-1 -20 -15 -32.5t-33 -12.5q-20 0 -34 13.5t-15 32.5q0 11 -7 19t-17 10
q-27 7 -42.5 28.5t-13.5 49.5l10 140q2 28 21 50.5t46 30.5q20 6 22 26q1 2 1 5v3l48 224q8 39 43 67.5t75 28.5h366q40 0 75 -28.5t43 -67.5l48 -224v-3q0 -3 1 -5q2 -20 22 -26q27 -8 46 -30.5t21 -50.5l10 -140q2 -28 -13.5 -49.5t-42.5 -28.5zM271 423h482q18 0 28 12
t7 29v2l-38 165q-3 20 -20 34t-37 14h-362q-20 0 -37 -14t-20 -34l-38 -165v-2q-3 -17 7 -29t28 -12zM335 616h354l30 -130h-414zM233 316q-29 0 -50 -21t-21 -50t21 -50t50 -21t50 21t21 50t-21 50t-50 21zM791 316q-29 0 -50 -21t-21 -50t21 -50t50 -21t50 21t21 50
t-21 50t-50 21zM791 316z" />
    <glyph glyph-name="uniE608" unicode="&#xe608;"
d="M220 563q-5 0 -9 2q-8 5 -10 13t2 15q53 96 150 132q48 18 87 16q8 0 14 -6t5.5 -14.5t-6.5 -14.5t-15 -6q-32 1 -73 -14q-81 -31 -127 -113q-5 -10 -18 -10zM800 563q-12 0 -18 10q-20 37 -48.5 63.5t-52 38t-49.5 18t-35 7.5t-15 0q-8 0 -14 6t-6.5 14.5t5 14.5t14.5 6
q39 2 87 -16q96 -36 150 -132q4 -7 1.5 -15t-9.5 -13q-5 -2 -10 -2zM429 227q-8 0 -14 6t-6 14.5t6 14.5l77 82v147q0 9 6 15t14.5 6t14.5 -6t6 -15v-163l-89 -94q-6 -7 -15 -7zM517.5 65q-120.5 0 -206 85t-85.5 206t85.5 206t206 85t206 -85t85.5 -206t-85.5 -206
t-206 -85zM518 603q-102 0 -174.5 -72.5t-72.5 -174.5t72.5 -174.5t174.5 -72.5t174.5 72.5t72.5 174.5t-72.5 174.5t-174.5 72.5zM296 34q-6 0 -11 4q-7 4 -9 12.5t3 15.5l58 88q4 7 12.5 9t15.5 -3t9 -13t-3 -15l-58 -89q-6 -9 -17 -9zM746 34q-11 0 -17 9l-58 89
q-5 7 -3 15t9 13t15.5 3t12.5 -9l58 -88q5 -7 3 -15.5t-9 -12.5q-5 -4 -11 -4zM686 146z" />
    <glyph glyph-name="uniE609" unicode="&#xe609;"
d="M127 793h291h27h137h153h164q20 0 34.5 12.5t14.5 30.5t-14.5 31t-34.5 13h-164h-153h-137h-27h-291q-20 0 -34 -13t-14 -31t14 -30.5t34 -12.5zM417 402zM976 706h-928q-20 0 -34 -14t-14 -34v-130v-462v-129q0 -20 14 -34t34 -14h928q20 0 34 14t14 34v129v462v130
q0 20 -14 34t-34 14zM671 253q20 0 34 -13t14 -30.5t-14 -30.5t-34 -13h-116v-104q0 -20 -12.5 -34.5t-30.5 -14.5t-30.5 14.5t-12.5 34.5v104h-116q-20 0 -34 13t-14 30.5t14 30.5t34 13h116v62h-116q-20 0 -34 12.5t-14 30.5t14 31t34 13h64l-24 45l-28 53
q-9 18 -4.5 36.5t20.5 27t34 1.5t27 -24l23 -44l1 -1v-1l23 -44l24 -45l23 45l24 44q0 1 1 2l22 44q10 17 27.5 24t33.5 -1.5t20.5 -27t-4.5 -36.5l-28 -53l-24 -45v0v0h63q20 0 34 -13t14 -31t-14 -30.5t-34 -12.5h-116v-62h116z" />
    <glyph glyph-name="uniE60A" unicode="&#xe60a;"
d="M912 446h-1q-39 52 -100 69l-3 1l-4 1l-2 4l-1 2q-35 91 -113.5 145t-174.5 54q-98 0 -178 -56q-78 -55 -113 -143l-1 -2l-1 -4l-4 -1l-3 -1q-61 -17 -100 -69q-40 -53 -40 -118q0 -81 58.5 -138.5t139.5 -57.5q12 0 21 8.5t9 19.5q0 13 -8 21t-22 8q-58 0 -99 40.5
t-41 98.5q0 51 29 87q38 51 101 55q10 35 29 66l3 6v0l1 1q33 56 91 89q59 34 128 34q66 0 123 -32q56 -32 90 -85q5 -6 9 -13l6 -9v-1v-1q14 -25 22 -52q59 -5 95 -51q37 -39 37 -94q0 -58 -41.5 -98.5t-100.5 -40.5q-12 0 -20 -8q-9 -8 -9 -21q0 -10 9 -19t20 -9
q83 0 140 58q58 57 58 138q0 66 -39 118zM632 122h-1q-10 0 -20 -9l-59 -64l-15 -17v22v47v0v211v22l15 -16l59 -65q10 -9 18 -9q11 0 19.5 7.5t8.5 18t-8 17.5v1l-117 130q-10 8 -20 8q-13 0 -20 -7l-119 -130q-6 -11 -6 -20q0 -10 7.5 -17.5t17.5 -7.5q11 0 20 9l59 65
l15 16v-22v-47v0v-211v-22l-15 17l-59 64q-9 9 -17 9q-12 0 -20 -7t-8 -17.5t7 -18.5h1v0l116 -131q11 -8 21 -8q12 0 20 8l118 130q7 11 7 19q0 10 -8 17.5t-17 7.5z" />
    <glyph glyph-name="uniE60B" unicode="&#xe60b;"
d="M818 -29q-5 82 -67 133q-35 28 -119 61q-31 12 -46 19t-32 19.5t-23 25.5q-2 23 -2 62v5v4q13 13 25 38q14 28 19 56q10 5 18 15q15 20 20 56q3 30 -13 50q13 46 17 89q6 78 -22 124q-27 43 -79 53q-30 38 -106 38q-114 -2 -164 -68q-59 -79 -22 -235q-17 -21 -13 -51
q4 -36 20 -56q8 -10 18 -15q5 -26 18 -53t27 -41v-9q0 -39 -2 -62q-8 -19 -31.5 -32.5t-70.5 -31.5q-83 -33 -119 -61q-62 -51 -67 -133q-1 -9 5 -15.5t15 -6.5h776q9 0 15 6.5t5 15.5zM45 -10q9 49 50 82q30 24 108 55q28 11 42.5 17.5t34.5 17.5t31.5 24.5t18.5 30.5
q1 3 1 5q2 27 2 69v19q0 12 -11 18q-8 6 -21 32t-16 52q0 7 -5.5 12.5t-12.5 5.5q-2 0 -5 3t-6.5 12.5t-5.5 24.5q-2 17 6 22q13 8 9 23q-18 69 -16 122q3 56 28 89q38 50 131 52q61 0 76 -26q5 -8 15 -10q40 -5 59 -35q14 -24 16 -62t-3.5 -69.5t-15.5 -59.5q-5 -16 9 -24
q8 -6 6 -22q-2 -15 -5.5 -24.5t-6.5 -12.5t-5 -3q-7 0 -12.5 -5.5t-5.5 -12.5q-3 -26 -16 -52.5t-20 -31.5q-11 -6 -11 -18v-19q0 -42 2 -69q0 -2 1 -5q7 -17 18.5 -30.5t31.5 -24.5t34.5 -17.5t41.5 -17.5q78 -31 108 -55q40 -33 50 -82h-730zM1017 66.5q-6 -6.5 -15 -6.5
h-126q-8 0 -14 6t-6 14.5t6 14.5t14 6h102q-8 37 -39 63q-26 20 -90 46q-24 9 -36 14.5t-29 15t-27.5 21.5t-15.5 26q-1 3 -1 6q-2 22 -2 58v16q0 12 10 18q7 5 17 26.5t12 41.5q1 7 6 12t12 6q9 3 12 31q1 11 -4 15q-14 9 -8 24q7 23 12 49.5t3.5 58t-13.5 50.5
q-15 24 -47 28q-10 2 -15 11q-12 19 -61 19q-19 0 -34 -3q-9 -1 -16 4t-8 13.5t3.5 15t13.5 8.5q19 3 40 3h1q64 0 90 -32q45 -9 68 -45q39 -64 5 -181q14 -18 11 -43q-4 -31 -18 -49q-6 -8 -14 -13q-11 -50 -37 -78v-7q0 -32 1 -51q7 -15 27 -26t57 -25q70 -28 100 -52
q54 -44 58 -115q1 -8 -5 -14.5z" />
    <glyph glyph-name="uniE60C" unicode="&#xe60c;"
d="M531 -14q158 223 231 363q42 69 42 150q0 122 -86 207.5t-207 85.5t-207 -85.5t-86 -207.5q0 -81 42 -150q10 -23 28 -56.5t75 -122.5t129 -185q0 -1 1 -2h1v-1h1h1v-1l2 -2h1q1 -1 3 -1v-1h2l1 -1h1h1h1h1h2v0v0h2v0h1h1h1l1 1h1h1h1v1h2l1 1h1l2 2q1 0 1 1h1v1l1 1z
M300 375q-34 58 -34 124q0 102 71.5 173.5t173 71.5t173.5 -71.5t72 -173.5q0 -66 -34 -124q-1 -1 -2 -3q-63 -123 -210 -331q-66 91 -119.5 176.5t-67.5 112.5t-21 41zM511 322q73 0 125.5 52t52.5 125.5t-52.5 125.5t-126 52t-125.5 -52t-52 -125.5t52 -125.5t126 -52z
M511 629q54 0 92 -38t38 -91.5t-38 -91.5t-92 -38t-92 38t-38 91.5t38 91.5t92 38zM511 629z" />
    <glyph glyph-name="uniE60D" unicode="&#xe60d;"
d="M628 273q-2 0 -46 2.5t-59 2.5q-54 0 -113 -5q-16 -1 -19 -17q-2 -12 -2 -29q0 -8 47.5 -16.5t86.5 -8.5q46 0 91 7.5t46 19.5q1 13 0.5 20t-4.5 11q-2 1 -4.5 4t-4 4.5t-6.5 3t-13 1.5zM324 295q-53 13 -57 14q-14 7 -28.5 1t-6.5 -28q4 -11 6.5 -16.5t3 -6.5t2 -2.5
t3.5 -5.5q3 -4 7.5 -6t6.5 -2.5t9 -0.5h9h81q-2 20 -4 31q-2 9 -8 13.5t-24 8.5zM789 300q-10 -4 -31.5 -7.5t-30.5 -5.5q-18 -4 -24 -9t-7 -14l-4 -31h85h8h9q3 0 7.5 2.5t6.5 6.5q3 4 4.5 5.5t2 2.5t3 6.5t6.5 16.5q8 22 -6.5 28t-28.5 -1zM301 371h444q14 0 15.5 4
t-7.5 14q-7 7 -44.5 45t-37.5 39q-8 9 -23 9h-250q-16 0 -27 -14q-6 -7 -42 -43.5t-40 -40.5q-6 -8 -3 -10.5t15 -2.5zM530 770q-98 0 -187.5 -38t-154 -102.5t-102.5 -154t-38 -187.5t38 -187.5t102.5 -154t154 -102.5t187.5 -38t187.5 38t154 102.5t102.5 154t38 187.5
t-38 187.5t-102.5 154t-154 102.5t-187.5 38zM854 362q-2 0 -33 2q9 -9 13.5 -16t8 -22t3.5 -35v-213q0 -12 -8 -25.5t-18 -13.5h-106q-16 0 -16 18v35h-342v-31q0 -7 -7 -14t-17 -7h-90q-11 0 -20 12t-9 28v211q0 49 18 67l7 6q-10 -1 -32 -2q-11 -1 -16 2.5t-4.5 10.5
t1 10.5t3.5 11.5q5 14 24 14q10 0 27 -5q14 -4 25 -12q89 94 97 101q3 2 6.5 5t4.5 4t4 2.5t6 1.5h7h261h9h9q3 0 7.5 -0.5t7.5 -2.5t6 -6q3 -3 21 -21.5t42.5 -43.5t38.5 -40q13 9 26 12q17 5 27 5q19 0 24 -14q3 -8 3.5 -11.5t1 -10.5t-4.5 -10.5t-16 -2.5z" />
    <glyph glyph-name="uniE60E" unicode="&#xe60e;"
d="M512 -128q-104 0 -199 40.5t-163.5 109t-109 163.5t-40.5 199t40.5 199t109 163.5t163.5 109t199 40.5t199 -40.5t163.5 -109t109 -163.5t40.5 -199t-40.5 -199t-109 -163.5t-163.5 -109t-199 -40.5zM512 800q-113 0 -209 -55.5t-151.5 -151.5t-55.5 -209t55.5 -208.5
t151.5 -151.5t209 -56t208.5 56t151.5 151.5t56 208.5t-56 209t-151.5 151.5t-208.5 55.5zM692 304l-144 -160h-1q-14 -16 -35 -16t-36 16l-144 160q-12 14 -12 32q0 20 14 34t34 14q21 0 35 -16h1l60 -67v291q0 20 14 34t34 14t34 -14t14 -34v-291l60 67q15 16 36 16
q20 0 34 -14t14 -34q0 -18 -13 -32h1z" />
    <glyph glyph-name="uniE60F" unicode="&#xe60f;"
d="M856 836h-443q-41 0 -69.5 -29t-28.5 -70v-74h-148q-41 0 -69.5 -28.5t-28.5 -69.5v-517q0 -41 28.5 -69.5t69.5 -28.5h517q41 0 69.5 28.5t28.5 69.5v148h74q41 0 70 28.5t29 69.5v443q0 41 -29 70t-70 29zM905 294q0 -20 -14 -34.5t-35 -14.5h-74v256l-49 -49v-404
q0 -20 -14.5 -34.5t-34.5 -14.5h-517q-20 0 -34.5 14.5t-14.5 34.5v517q0 20 14.5 34.5t34.5 14.5h404l49 49h-256v74q0 21 14.5 35t34.5 14h443q21 0 35 -14t14 -35v-443zM741 656l-401 -401l1 168q0 10 -7.5 17t-17.5 7t-17 -7t-7 -17l-2 -227q0 -10 7.5 -17.5t17.5 -7.5
q4 0 8 2h219q10 0 17 7t7 17t-7.5 17t-17.5 7l-165 1l400 399q7 7 7 17t-7.5 17.5t-17.5 7.5t-17 -7z" />
    <glyph glyph-name="uniE610" unicode="&#xe610;"
d="M848 -62h-672q-47 0 -79.5 33t-32.5 79v672q0 47 32.5 79.5t79.5 32.5h672q46 0 79 -32.5t33 -79.5v-672q0 -46 -33 -79t-79 -33zM904 722q0 24 -16.5 40t-39.5 16h-672q-24 0 -40 -16t-16 -40v-672q0 -23 16 -39.5t40 -16.5h672q23 0 39.5 16.5t16.5 39.5v672zM764 666
h-504q-12 0 -20 8.5t-8 20t8 19.5t20 8h504q11 0 19.5 -8t8.5 -19.5t-8.5 -20t-19.5 -8.5zM491 602q8 8 21 8t21 -8l139 -168q8 -8 8 -20t-8 -20t-20 -8t-20 8l-92 112v-428q0 -11 -8.5 -19.5t-20 -8.5t-19.5 8.5t-8 19.5v427l-92 -111q-8 -8 -19.5 -8t-20 8t-8.5 20t8 20z
" />
    <glyph glyph-name="uniE611" unicode="&#xe611;"
d="M649 179h-365q-9 0 -15.5 6.5t-6.5 16t6.5 16t15.5 6.5h365q9 0 15.5 -6.5t6.5 -16t-6.5 -16t-15.5 -6.5zM649 292h-365q-9 0 -15.5 7t-6.5 16.5t6.5 16t15.5 6.5h365q9 0 15.5 -6.5t6.5 -16t-6.5 -16.5t-15.5 -7zM375 520q-9 0 -15.5 6.5t-6.5 16t6.5 16t15.5 6.5h183
q9 0 15.5 -6.5t6.5 -16t-6.5 -16t-15.5 -6.5h-183zM671 428.5q0 -9.5 -6.5 -16t-15.5 -6.5h-365q-9 0 -15.5 6.5t-6.5 16t6.5 16.5t15.5 7h365q9 0 15.5 -7t6.5 -16.5zM853 19h-682q-29 0 -49 20t-20 49v568q0 29 20 49t49 20h614q19 0 32.5 -13.5t13.5 -32.5v-523
q0 -10 -7 -16.5t-16.5 -6.5t-16 6.5t-6.5 16.5v205v273q0 19 -13.5 32t-31.5 13h-547q-18 0 -31.5 -13t-13.5 -32v-524q0 -19 13.5 -32t31.5 -13h638q18 0 31.5 13t13.5 32v524q0 9 6.5 15.5t16 6.5t16.5 -6.5t7 -15.5v-546q0 -29 -20 -49t-49 -20z" />
    <glyph glyph-name="uniE612" unicode="&#xe612;"
d="M1006 520v1l-253 288q-19 23 -47 23q-29 0 -48 -23q-17 -19 -17 -48v-121h-97q-13 0 -22.5 -9.5t-9.5 -22.5t9.5 -22.5t22.5 -9.5h129q13 0 22.5 9.5t9.5 22.5v153q0 3 1 5l251 -287q2 -2 2 -6t-2 -7l-251 -287q-1 2 -1 5v167q0 13 -9.5 22.5t-22.5 9.5h-161h-129v134
q0 29 -19 50t-46 21q-28 0 -47 -23l-252 -288q-17 -21 -17 -48.5t17 -47.5h1l251 -284q19 -23 47 -24q29 0 48 23q17 20 17 48v120h99q13 0 22.5 9.5t9.5 22.5t-9.5 22.5t-22.5 9.5h-131q-13 0 -22.5 -9.5t-9.5 -22.5v-152q0 -3 -1 -5l-250 283q-2 3 -2 7t2 6l250 287
q1 -2 1 -5v-166q0 -14 9.5 -23t22.5 -9h161h129v-135q0 -29 19 -49.5t46 -20.5q29 0 47 22l253 288v1q17 20 17 47.5t-17 47.5z" />
    <glyph glyph-name="uniE613" unicode="&#xe613;" horiz-adv-x="1156"
d="M819 357q-26 10 -50.5 3t-39.5 -32q-16 -28 -56 -27q-71 2 -126 0q-37 -2 -53 25q-22 38 -66 35q-28 0 -49.5 -18t-25.5 -46q-8 -56 43 -81q25 -14 51.5 -8.5t42.5 30.5q12 19 27.5 24.5t38.5 4.5q48 -1 119 0q38 1 56 -27q28 -45 79 -30q58 17 60 74q1 54 -51 73z
M431 243q-40 3 -43 39q-1 19 10 31t30 13t31 -9.5t13 -30.5q2 -32 -41 -43zM790 244q-18 0 -29 11.5t-10 28.5q0 20 11 32t31 12q18 -1 27.5 -12t15.5 -29q-10 -45 -46 -43zM853 423q-12 7 -41 18.5t-48.5 24t-32.5 32.5q-24 42 -63 56t-92 12q-35 -1 -96 -10
q-106 -15 -155.5 -82.5t-32.5 -174.5q3 -24 18 -36q10 -9 19 -5q5 2 7 7.5t0 10.5q-10 25 -9 39.5t6 39.5t4 39q-3 57 58 95q22 14 86 30q2 0 4 1q14 6 27 2.5t14 -25.5q2 -24 -7 -34.5t-32 -8.5q-20 2 -54 0q-3 0 -11 0.5t-12 0t-9.5 -2t-8 -6t-2.5 -12.5q0 -6 2.5 -10
t7.5 -5.5t9 -1.5h11h11h158h80h83q73 -5 133 -63q8 -7 11.5 -14t1.5 -17t-2.5 -13.5t-7 -17.5t-6.5 -15q-5 -11 5 -19q9 -6 23 4q21 16 24 51.5t-15 59.5q-4 6 -9.5 11.5t-9 8.5t-12 8.5t-10.5 7t-13 8t-12 6.5zM681 455q-6 -1 -13 -1t-15.5 0.5t-13.5 0.5q-34 0 -37 -1
q-22 -2 -31.5 6.5t-9.5 32.5q0 14 2.5 21.5t11 10t13 3t18.5 -0.5q62 0 88 -43q1 -1 5 -6t5.5 -8.5t0.5 -5.5q-1 -6 -4 -8t-11 -2zM1147 437l-97 -100q-10 -10 -23 -10t-22 10l-71 100q-3 4 -5 7.5t-3 6t-0.5 5.5t0.5 4.5t2.5 5t3 4t4.5 4t5 4.5h57q-28 156 -150.5 259.5
t-283.5 103.5q-124 0 -228 -63t-161 -168l-51 23q66 126 183 194.5t269 68.5q196 0 335.5 -115t168.5 -303h61q24 -24 6 -41zM151 444l98 -127q17 -18 -7 -41h-77q19 -71 57.5 -134t91 -111.5t120.5 -77t142 -28.5q114 0 226 59.5t172 150.5l61 -13q-71 -115 -188.5 -182.5
t-256.5 -67.5q-183 0 -324.5 114t-183.5 290h-66q-1 1 -5 4.5t-4.5 4t-3 4t-2.5 4.5t-1 4.5t0.5 6t3.5 6t5 7.5l97 127q9 9 22.5 9t22.5 -9z" />
    <glyph glyph-name="uniE615" unicode="&#xe615;"
d="M512 851q-95 0 -181.5 -37t-149 -99.5t-99.5 -149t-37 -181.5t37 -181.5t99.5 -149t148.5 -99.5t181 -37h1h1q95 0 181.5 37t148.5 99.5t99 149t37 181.5t-37 181.5t-99.5 149t-149 99.5t-181.5 37zM542 -25v127q0 13 -9 21.5t-21 8.5t-21 -8.5t-9 -21.5v-127
q-152 11 -260 119t-119 260h127q13 0 21.5 9t8.5 21t-8.5 21t-21.5 9h-127q11 152 119 260t260 119v-129q0 -13 9 -21.5t21 -8.5t21 8.5t9 21.5v129q152 -11 260 -119t119 -260h-129q-13 0 -21.5 -9t-8.5 -21t8.5 -21t21.5 -9h129q-11 -152 -119 -260t-260 -119zM512 384z
M395 384q0 48 34.5 82.5t82.5 34.5t82.5 -34.5t34.5 -82.5t-34.5 -82.5t-82.5 -34.5t-82.5 34.5t-34.5 82.5z" />
    <glyph glyph-name="uniE616" unicode="&#xe616;"
d="M30 360h152q11 0 18.5 7.5t7.5 18t-7.5 18t-18.5 7.5h-152q-10 0 -17.5 -7.5t-7.5 -18t7.5 -18t17.5 -7.5zM208 182.5q0 10.5 -7.5 18t-18.5 7.5h-152q-10 0 -17.5 -7.5t-7.5 -18t7.5 -18t17.5 -7.5h152q11 0 18.5 7.5t7.5 18zM30 563h152q11 0 18.5 7.5t7.5 18t-7.5 18
t-18.5 7.5h-152q-10 0 -17.5 -7.5t-7.5 -18t7.5 -18t17.5 -7.5zM817 893h-559q-84 0 -143.5 -59.5t-59.5 -143.5h51h2q9 65 59 108.5t117 43.5h507q74 0 126 -52t52 -126v-558q0 -73 -52 -125.5t-126 -52.5h-507q-67 0 -117 44t-59 109h-53q0 -84 59.5 -143.5t143.5 -59.5
h559q84 0 143.5 59.5t59.5 143.5v609q0 84 -59.5 143.5t-143.5 59.5zM284 157q0 -13 1 -26h51q-1 13 -1 26q0 94 66.5 161t161.5 67t161.5 -67t66.5 -161q0 -13 -1 -26h51q1 13 1 26q0 89 -51 160.5t-132 101.5q56 46 56 119q0 63 -44.5 107.5t-107.5 44.5t-107.5 -44.5
t-44.5 -107.5q0 -73 56 -119q-81 -30 -132 -101.5t-51 -160.5zM461 538q0 42 30 71.5t72 29.5t72 -29.5t30 -71.5t-30 -72t-72 -30t-72 30t-30 72z" />
    <glyph glyph-name="uniE618" unicode="&#xe618;"
d="M869 599l-174 189q-8 8 -19 8h-285q-31 0 -53 -22t-22 -53v-34h54v34q0 9 6 15.5t15 6.5h262v-183q0 -5 4 -8.5t9 -3.5h157v-404q0 -9 -6.5 -15.5t-15.5 -6.5h-67v-53h67q31 0 53 22t22 53v437q0 11 -7 18zM678 727l143 -154h-143v154zM527 650q-8 9 -20 9h-284
q-31 0 -53 -22t-22 -53v-578q0 -31 22 -53t53 -22h410q31 0 53 22t22 53v438q0 10 -7 18zM643 445h-120v130zM633 -15h-410q-9 0 -15.5 6t-6.5 15v578q0 9 6.5 15t15.5 6h272l3 -3v-169q0 -6 3.5 -9.5t8.5 -3.5h144v-414q0 -9 -6 -15t-15 -6zM565 113h-293q-9 0 -9 -9.5
t9 -9.5h293q10 0 10 9.5t-10 9.5zM565 193h-293q-9 0 -9 -9.5t9 -9.5h293q10 0 10 9.5t-10 9.5zM565 273h-293q-9 0 -9 -9.5t9 -9.5h293q10 0 10 9.5t-10 9.5zM272 332h134q10 0 10 9.5t-10 9.5h-134q-9 0 -9 -9.5t9 -9.5zM306 490q0 -6 7 -6q1 -14 10.5 -25t22 -11t22 11
t10.5 25q7 0 7 6q0 5 -4 7q2 6 2 12q0 17 -11 28.5t-26.5 11.5t-26.5 -11.5t-11 -28.5q0 -6 2 -12q-4 -2 -4 -7zM266 384h159q4 0 4 3v13q0 1 -1 2q-24 23 -54 31h-2h-2h-2q-9 -5 -22.5 -5t-22.5 5h-2h-1h-1q-32 -7 -55 -31q-1 -1 -1 -2v-13q0 -3 3 -3z" />
    <glyph glyph-name="uniE619" unicode="&#xe619;"
d="M919 626h-1v1q-4 7 -12 9.5t-15 -2t-9 -12t2 -15.5h1q57 -101 57 -217q0 -88 -34.5 -168.5t-92.5 -139t-139 -93t-169 -34.5t-169 34.5t-139 93t-92.5 139t-34.5 169t34.5 169t92.5 138.5t139 92.5t169 34.5q116 0 216 -57h1v-1v0q7 -4 15 -1.5t12 9.5t2 14.5t-9 12.5
q-110 63 -237 63q-97 0 -184.5 -37.5t-151.5 -101t-101.5 -151.5t-37.5 -184.5t37.5 -184.5t101.5 -151.5t151.5 -101t184.5 -37.5t184.5 37.5t151.5 101t101.5 151.5t37.5 184q0 127 -63 236zM807 200q-1 8 -2.5 21t-10.5 35.5t-22 25.5q-53 -33 -67 -51q-2 -2 -6 -4
t-13.5 -2t-15.5 8q-12 12 -26 24q-15 28 -38 58q20 -11 42.5 -17.5t59 -2.5t69.5 26q6 -4 15 -12.5t28 -39.5t27 -69h-40zM686 330q-58 0 -96 45q9 14 16 29q28 -44 80 -44q40 0 68 28t28 67.5t-28 67.5t-68 28q-38 0 -66 -27q-3 14 -9 32q33 25 75 25q52 0 89 -36.5t37 -89
t-37 -89t-89 -36.5zM433 331q-64 0 -109 45t-45 109t45 109t109 45t109 -45t45 -109t-45 -109t-109 -45zM433 602q-49 0 -83 -34.5t-34 -83t34 -82.5t82.5 -34t83 34t34.5 82.5t-34.5 83t-82.5 34.5zM313 330q5 -4 13 -9t34 -15.5t52 -14t62 4t69 29.5q4 -2 9.5 -5.5
t19.5 -18.5t25.5 -32.5t21 -48.5t11.5 -66h-50q0 1 0.5 12t-1.5 29.5t-5.5 35.5t-13 31t-23.5 16q-65 -42 -82 -63l-7 -5q-5 -3 -17 -3t-19 10q-62 62 -85 62q-3 -3 -8.5 -10.5t-13 -40t-4.5 -76.5h-54l1 14q0 14 3.5 35t9.5 45t19.5 47t32.5 37z" />
    <glyph glyph-name="uniE61A" unicode="&#xe61a;"
d="M777.5 446q-94.5 0 -161 -66.5t-66.5 -161t66.5 -161.5t161 -67t161 67t66.5 161.5t-66.5 161t-161 66.5zM779.5 53q-71.5 0 -121.5 48.5t-50 117t50 117t121.5 48.5t122 -48.5t50.5 -117t-50.5 -117t-122 -48.5zM749 135h-63v42h63v21h-63v40h47l-44 77l-6 10l46 20
l50 -91l55 91l42 -25l-51 -82h49l-1 -41h-62v-20h63v-41h-63v-72h-62v71zM749 135zM624 52h-474q-9 0 -16 7t-7 16v85q0 10 7 16.5t16 6.5h165h196h43q-2 17 -2 35q0 29 7 57q-18 19 -26.5 37.5t-10 32.5t6 34.5t14 32t21.5 34.5q5 9 8 13q11 15 19 29v0q25 46 25 98
q0 84 -60 144t-144.5 60t-144.5 -60t-60 -144q0 -71 43 -126l17 -26q11 -16 17.5 -25t14 -24t9.5 -25.5t1.5 -25.5t-8 -28t-21 -28.5t-34.5 -31.5h-162q-14 0 -24.5 -13.5t-10.5 -28.5v-172q0 -15 10 -25t25 -10h643q-59 14 -103 55zM287 578q0 56 34 92t89 36
q54 0 90.5 -39.5t36.5 -95.5q0 -34 -16 -63q-8 -14 -13 -20q-29 -34 -43 -64.5t-12.5 -61t9.5 -56t26 -62.5h-149q15 26 21.5 40t14 35.5t6 38t-7.5 38.5t-21.5 46.5t-40.5 52.5q-24 30 -24 83z" />
    <glyph glyph-name="uniE61B" unicode="&#xe61b;"
d="M510 896q-139 0 -256 -68t-185.5 -185.5t-68.5 -256.5t68.5 -256.5t185.5 -185.5t256 -68q211 0 360.5 149.5t149.5 360.5q0 139 -68 256t-185.5 185.5t-256.5 68.5zM719 244q14 -13 14 -33t-14 -34t-34 -14t-33 14l-142 141l-141 -141q-14 -14 -34 -14t-34 14t-14 33.5
t14 33.5l141 142l-141 141q-14 14 -14 34t14 34t34 14t34 -14l141 -141l142 141q14 14 33.5 14t33.5 -14t14 -34t-14 -34l-141 -141z" />
    <glyph glyph-name="uniE61C" unicode="&#xe61c;"
d="M512 865q-98 0 -187 -38.5t-153 -102.5t-102.5 -153t-38.5 -187t38.5 -187t102.5 -153t153 -102.5t187 -38.5t187 38.5t153 102.5t102.5 153t38.5 187t-38.5 187t-102.5 153t-153 102.5t-187 38.5zM243 115l59 157l93 -92zM419 193l-100 105l280 276l97 -100zM776 551
l-56 -58l-101 101l49 50l8 5q4 3 17.5 3.5t27 -9t27 -22t20.5 -20.5l8 -7q13 -29 0 -43z" />
    <glyph glyph-name="uniE61D" unicode="&#xe61d;"
d="M512 896q-104 0 -199 -40.5t-163.5 -109t-109 -163.5t-40.5 -199t40.5 -198.5t109 -163t163.5 -109t199 -40.5t198.5 40.5t163 109t109 163t40.5 198.5t-40.5 199t-109 163.5t-163 109t-198.5 40.5zM829.5 66.5q-62.5 -62.5 -142.5 -96.5q-84 -35 -175.5 -35t-174.5 35
q-81 34 -143 96.5t-96 142.5q-36 84 -36 175.5t36 174.5q34 81 96 143t143 96q83 36 174.5 36t175.5 -36q80 -34 142.5 -96t96.5 -143q35 -83 35 -174.5t-35 -175.5q-34 -80 -96.5 -142.5zM777 498h-1l2 4l-197 108q-12 7 -24 3t-19 -15q-4 -7 -4 -15q0 -18 17 -27l105 -58
h-407q-13 0 -22.5 -9t-9.5 -22t9.5 -22t22.5 -9h528q13 0 22 9t9 22t-9 22t-22 9zM777 351h-528q-13 0 -22.5 -9t-9.5 -22q0 -11 7 -19.5t17 -10.5q3 -3 6 -5l184 -101q7 -4 15 -4q18 0 27 16q4 7 4 15q0 19 -16 28l-91 50h407q13 0 22 9t9 22t-9 22t-22 9z" />
    <glyph glyph-name="uniE61E" unicode="&#xe61e;"
d="M275 566q0 -11 8.5 -19.5t19.5 -8.5h418q11 0 19.5 8.5t8.5 20t-8.5 20t-19.5 8.5h-418q-11 0 -19.5 -8.5t-8.5 -20.5v0zM720 441h-417q-11 0 -19.5 -8.5t-8.5 -20t8.5 -20t19.5 -8.5h418q11 0 19.5 8.5t8.5 20.5q-1 12 -9.5 20t-19.5 8v0zM720 274h-417
q-11 0 -19.5 -8.5t-8.5 -20t8.5 -19.5t19.5 -8h418q11 0 19.5 8t8.5 20q-1 12 -9.5 20t-19.5 8v0zM416 747h194q16 0 28.5 14.5t12.5 34t-12.5 34t-30.5 14.5h-192q-18 0 -30.5 -14.5t-12.5 -34t12.5 -34t30.5 -14.5v0zM416 747zM802 -76h-580q-64 0 -102.5 38.5
t-38.5 102.5v622q0 64 36 100t99 36h102q10 0 17 -7t7 -17t-7 -17t-17 -7h-102q-87 0 -87 -88v-622q0 -44 24.5 -68.5t68.5 -24.5h580q93 0 93 93v622q0 41 -23.5 64.5t-63.5 23.5h-88q-10 0 -17 7t-7 17t7 17t17 7h88q60 0 97.5 -37.5t37.5 -98.5v-622q0 -67 -37 -104
t-104 -37z" />
    <glyph glyph-name="uniE61F" unicode="&#xe61f;"
d="M628 390l29 28q18 -7 39 -10q27 -2 53 5q34 9 60 33q26 22 40 56q2 6 -0.5 12.5t-8.5 8.5q-5 2 -10 1l-43 -12l-35 -10l-26 26l-25 26l9 35l9 35l36 9l42 12q7 1 10.5 7t1.5 13q-1 4 -6 8q-28 22 -62 29q-36 7 -69 -2q-60 -16 -90 -69q-31 -53 -16 -113l1 -2l-33 -33
l-95 95q1 2 7 15l1 1q5 10 8 25q9 15 22 20q14 7 37 5q8 -1 14 5q11 11 -1 23q-38 36 -79 39q-40 2 -76 -28q-5 -2 -16 -7q-6 -3 -9 -5l-9 8q-4 5 -11 5t-11 -5l-71 -71q-5 -5 -5 -11.5t5 -11.5l8 -8l-2 -3v-1l-6 -12q-2 -1 -6 -2q-5 -2 -15 -1q-8 0 -13 -5l-34 -34
q-12 -12 0 -23l40 -41l1 -1h1v-1v0l1 -1l42 -42q11 -11 23 0l34 35q5 5 5 13q-1 6 1 12v0q1 2 4 7q8 3 12 5v1l4 2l96 -95l-200 -200q-11 -12 0 -23l71 -71q4 -5 11 -5t11 5l200 200l206 -206q11 -11 23 0l70 71q5 5 5 11.5t-5 11.5zM359 516q-10 10 -21 2q-8 -5 -12 -7
q-10 -5 -13 -6q-3 -2 -7 -5q-8 -9 -11 -19q-3 -9 -3 -18l-19 -18l-30 29v1h-1v1l-1 1v0l-1 1l-29 29l18 18q11 0 18 3q13 3 23 12q3 3 4 6q0 2 5 12q1 1 3.5 5.5t4.5 7.5q8 12 -3 21l-5 5l48 48l6 -6q9 -9 20 -2q9 6 17 10q10 4 16 6q2 1 6 4q25 23 54 22q12 -1 26 -7
q-8 -3 -9 -3q-22 -11 -37 -37q-1 -3 -2 -4q-1 -8 -6 -20l-1 -1q-5 -11 -12 -22t2 -20l105 -105l-49 -48zM323 130l-48 48l200 200l122 122q8 8 4 16l-2 6l-1 3v1q-12 47 12 89t70 54q28 7 54 2q10 -3 17 -5l-5 -1l-44 -13q-9 -2 -11 -11l-24 -88q-2 -9 4 -15l33 -33l31 -31
q6 -7 16 -5l44 12l5 1q-7 -8 -12 -13q-20 -17 -47 -25q-20 -5 -41 -4q-21 2 -39 11q-11 6 -20 -2zM751 124l-194 195l48 48l194 -195z" />
    <glyph glyph-name="uniE620" unicode="&#xe620;"
d="M512 -128q-104 0 -199 40.5t-163.5 109t-109 163.5t-40.5 199t40.5 199t109 163.5t163.5 109t199 40.5t199 -40.5t163.5 -109t109 -163.5t40.5 -199t-40.5 -199t-109 -163.5t-163.5 -109t-199 -40.5zM512 847q-94 0 -180 -36.5t-148 -98.5t-98.5 -148t-36.5 -180
t36.5 -180t98.5 -148t148 -98.5t180 -36.5t180 36.5t148 98.5t98.5 148t36.5 180t-36.5 180t-98.5 148t-148 98.5t-180 36.5zM426 145l-219 219l45 46l174 -174l346 346l45 -45z" />
    <glyph glyph-name="uniE622" unicode="&#xe622;"
d="M469 546q-85 -41 -123 -128q-5 -12 0 -24.5t17 -17.5q6 -2 12 -2q22 0 30 19q28 65 92 95q12 6 16.5 18.5t-1.5 24.5t-18.5 16.5t-24.5 -1.5zM797.5 350q-13.5 0 -22.5 -9.5t-9 -22.5q0 -78 -55.5 -133t-132.5 -55q-14 0 -23 -9.5t-9 -22.5t9 -22.5t23 -9.5q104 0 178 74
t74 178q0 13 -9.5 22.5t-23 9.5zM1015 -72l-146 145q38 44 61 98q30 71 30 149t-30 150q-30 68 -83 121.5t-122 82.5q-71 30 -149 30t-149 -30q-69 -29 -122.5 -82.5t-82.5 -121.5q-30 -72 -30 -150t30 -149q29 -69 82.5 -122t122.5 -83q71 -30 149 -30t149 30q55 23 99 61
l145 -145q10 -9 23 -9t22.5 9.5t9.5 22.5t-9 23zM576 0q-87 0 -160.5 43t-116.5 116.5t-43 160.5t43 160.5t116.5 116.5t160.5 43t160.5 -43t116.5 -116.5t43 -160.5t-43 -160.5t-116.5 -116.5t-160.5 -43zM319 -64h-179q-31 0 -53.5 22.5t-22.5 53.5v744q0 31 22.5 53.5
t53.5 22.5h680q31 0 53.5 -22.5t22.5 -53.5v-93q0 -13 9.5 -22.5t22.5 -9.5t22.5 9.5t9.5 22.5v93q0 58 -41 99t-99 41h-680q-58 0 -99 -41t-41 -99v-744q0 -58 41 -99t99 -41h179q13 0 22.5 9.5t9.5 22.5t-9.5 22.5t-22.5 9.5z" />
    <glyph glyph-name="uniE623" unicode="&#xe623;"
d="M935 384v-1v-11q0 2 -1 9q-1 -16 -12.5 -26.5t-26.5 -10.5h-121q-17 0 -28.5 11.5t-11.5 28.5t11.5 28.5t28.5 11.5h77q-4 31 -11 56q-29 100 -108 165.5t-180 77.5v-77q0 -17 -11.5 -28.5t-28.5 -11.5t-28.5 11.5t-11.5 28.5v77q-31 -4 -56 -11q-100 -29 -165.5 -108
t-77.5 -180h77q17 0 28.5 -11.5t11.5 -28.5t-11.5 -28.5t-28.5 -11.5h-77q4 -31 11 -56q29 -100 108 -165.5t180 -77.5v77q0 17 11.5 28.5t28.5 11.5t28.5 -11.5t11.5 -28.5v-77q31 4 56 11q68 20 121 64.5t85 104.5h1q6 12 15 18q15 9 31 5t25 -18q12 -21 -1 -42l1 -1
q-39 -75 -105 -129.5t-150 -79.5q-57 -17 -118 -17h-1v0h-1q-138 0 -251.5 83.5t-153.5 220.5q-16 57 -17 118v1v0v1q0 138 83.5 251.5t220.5 153.5q57 17 118 17h1v0h1q138 0 251.5 -83.5t153.5 -220.5q15 -52 16 -113q0 -1 0.5 -3t0.5 -3z" />
    <glyph glyph-name="uniE625" unicode="&#xe625;"
d="M681 -67h-616v683l119 139h377l120 -139v-683zM125 -16h496v616l-90 104h-316l-90 -104v-616zM373 524q-36 0 -61.5 25.5t-25.5 62t25.5 62t61.5 25.5t61.5 -25.5t25.5 -62t-25.5 -62t-61.5 -25.5zM373 649q-15 0 -26 -11t-11 -26.5t11 -26.5t26 -11t25.5 11t10.5 26.5
t-10.5 26.5t-25.5 11zM587 471l-157 -179h124v-40h-144v-54h144v-40h-144v-80h-74v80h-150v40h150v54h-150v40h128l-155 179h83q108 -133 132 -169h2q8 15 43 59l89 110h79zM708 10q-11 0 -19 5.5t-11 14.5q-2 10 4.5 19t18.5 11l165 32l-164 599l-115 85l-103 -20
q-12 -2 -23 3.5t-13.5 15.5t4 19t18.5 12l133 26l154 -113l181 -665l-223 -43q-4 -1 -7 -1z" />
    <glyph glyph-name="uniE626" unicode="&#xe626;"
d="M593 662l-46 -47q47 -47 71.5 -108t24.5 -123t-24.5 -123t-71.5 -108l46 -47q57 57 86 130.5t29 147.5t-29 147.5t-86 129.5v1zM501 569l-47 -46h1q57 -58 57 -139t-57 -139l46 -46q76 76 76 184.5t-76 185.5zM408 477l-92 -93l93 -93q38 39 38 93t-38 92zM512 896
q-104 0 -199 -40.5t-163.5 -109t-109 -163.5t-40.5 -199t40.5 -199t109 -163.5t163.5 -109t199 -40.5t199 40.5t163.5 109t109 163.5t40.5 199t-40.5 199t-109 163.5t-163.5 109t-199 40.5zM512 -85q-95 0 -182 37t-150 100t-100 150t-37 182t37 182t100 150t150 100t182 37
t182 -37t150 -100t100 -150t37 -182t-37 -182t-100 -150t-150 -100t-182 -37z" />
    <glyph glyph-name="uniE627" unicode="&#xe627;"
d="M821 742h-84v37q0 12 -8 20t-20 8q-11 0 -19.5 -8t-8.5 -20v-37h-306v37q0 12 -8.5 20t-19.5 8q-12 0 -20 -8t-8 -20v-37h-112q-34 0 -58.5 -24.5t-24.5 -59.5v-613q0 -35 24.5 -59.5t58.5 -24.5h614q34 0 58.5 24.5t24.5 59.5v613q0 34 -24.5 59t-58.5 25zM849 45
q0 -12 -8.5 -20t-19.5 -8h-614q-11 0 -19 8t-8 20v613q0 11 8 19.5t19 8.5h112v-8q0 -12 8 -20t20 -8q11 0 19.5 8t8.5 20v8h306v-8q0 -12 8.5 -20t19.5 -8q12 0 20 8t8 20v8h84q11 0 19.5 -8.5t8.5 -19.5v-613zM737 546h-446q-11 0 -19.5 -8t-8.5 -19q0 -12 8.5 -20
t19.5 -8h446q12 0 20 8t8 20q0 11 -8 19t-20 8zM737 379h-446q-11 0 -19.5 -8t-8.5 -20q0 -11 8.5 -19.5t19.5 -8.5h446q12 0 20 8.5t8 19.5q0 12 -8 20t-20 8zM514 212h-223q-11 0 -19.5 -8t-8.5 -19.5t8.5 -20t19.5 -8.5h223q12 0 20 8.5t8 20t-8 19.5t-20 8z" />
    <glyph glyph-name="uniE629" unicode="&#xe629;"
d="M271 -78q38 40 41 44l249 250q38 39 47 66q5 14 1.5 33t-13.5 30q-9 9 -27.5 14t-33.5 2q-24 -4 -58 -35q-18 -16 -123 -121q-26 -25 -30 -29q-26 -25 -41 -5q-3 5 -0.5 18t8.5 17q45 32 58 77.5t6 107.5q-1 11 1.5 33.5t-0.5 39.5t-16 31q-69 -60 -76 -67
q-16 -16 -51 -53t-54 -56q-44 -42 -43 -105q1 -81 -2 -242q0 -3 0.5 -12t0 -14.5t-2 -12t-6 -9.5t-12.5 -4q-10 0 -16 3t-7.5 9.5t-2 12t0.5 15t1 13.5q-1 45 0 135t0 135q0 56 42 98q32 32 99 102.5t102 106.5q49 49 43 112q-2 33 1 76q4 54 32.5 83t80.5 30q188 4 374 0
q52 -1 81 -31t29 -84q3 -321 1 -643q0 -54 -31.5 -87t-84.5 -33q-174 -2 -401 6q-43 2 -73 -28q-11 -11 -14.5 -14t-14 -11t-18 -9.5t-20.5 -1t-27 6.5zM756 408v100v118v100q0 53 -12 65.5t-61 13.5q-101 2 -187 0q-54 -2 -72 -20.5t-19 -71.5q-1 -184 0 -277
q0 -11 2.5 -24t6 -29t5.5 -24q58 33 63 36q34 21 75 19.5t68 -24.5q28 -23 35.5 -59.5t-8.5 -73.5q-13 -29 -43 -61q-20 -21 -60.5 -62t-60.5 -62q-4 -4 -7 -11t-6 -16.5t-5 -13.5q4 -1 12 -4t14 -4.5t12 -2.5q97 -2 180 0q43 1 55 13t13 57v318zM805 413v-41v-42v-255
q1 -47 34 -52q42 -6 59 38q8 19 8 60q1 280 0 587q0 36 -5 54q-13 41 -59 38q-36 -3 -37 -49v-35v-303z" />
    <glyph glyph-name="uniE62C" unicode="&#xe62c;"
d="M854 831h-680q-45 0 -76.5 -31.5t-31.5 -76.5v-680q0 -45 31.5 -76.5t76.5 -31.5h680q45 0 76.5 31.5t31.5 76.5v680q0 45 -31.5 76.5t-76.5 31.5zM908 43q0 -23 -15.5 -38.5t-38.5 -15.5h-680q-23 0 -38.5 15.5t-15.5 38.5v680q0 23 15.5 38.5t38.5 15.5h680
q23 0 38.5 -15.5t15.5 -38.5v-680zM908 43zM775 644h-394v-65h394v65v0zM775 416h-394v-66h394v66v0zM775 187h-394v-65h394v65v0zM316 187h-63v-65h63v65v0zM316 416h-63v-66h63v66v0zM316 644h-63v-65h63v65v0zM316 644z" />
    <glyph glyph-name="uniE62D" unicode="&#xe62d;"
d="M144 -19v3v4q-1 40 5 74t17 47q11 12 63 26q6 1 11 2q46 12 67.5 22t38.5 29q40 48 17 120l-5 14l-12 9q-23 18 -36 46.5t-13 60.5q0 53 31 90t74 37t74 -37t31 -90q0 -34 -14 -63t-38 -46l-13 -9l-5 -15q-22 -65 22 -117q19 -22 43.5 -33t66.5 -19q3 0 10 -2
q46 -8 51 -15q9 -13 14 -52q5 -36 4 -77q0 -4 -1 -6v-3h48q-1 6 0.5 32.5t-5 69.5t-21.5 64q-14 19 -48.5 27t-71 16.5t-53.5 29.5q-26 30 -13 70q33 24 52.5 63t19.5 85q0 73 -44.5 124t-108 51t-108.5 -51t-45 -124q0 -44 18.5 -82.5t49.5 -62.5q15 -47 -8 -73
q-14 -17 -50.5 -27t-74.5 -21.5t-54 -31.5q-18 -20 -26.5 -61.5t-7 -66.5t-0.5 -31h48zM665 274l29 38q-28 22 -28 62q0 31 17 52t40.5 21t40.5 -21t17 -52q0 -42 -30 -63l-12 -9l-5 -15q-18 -53 18 -95q15 -17 33.5 -26t50.5 -15q3 -1 7 -1l20 -4l5 -1q5 -6 8 -29t2 -51v-3
l48 -3l-13 46q-6 -2 -22 -4q-11 -1 -24 -3q-6 0 -10 -1l4 -48q46 5 65 10q4 82 -19 114q-11 16 -57.5 24.5t-61.5 25.5q-18 21 -9 49q23 16 36.5 43t13.5 59q0 50 -31 85.5t-74.5 35.5t-74.5 -35.5t-31 -85.5q0 -64 47 -100zM696 647q-81 98 -208 109t-224 -71q-7 -6 -8 -15
t5 -16t15.5 -8t16.5 5q83 70 191 60.5t178 -92.5q6 -7 15.5 -8t16.5 5t7.5 15t-5.5 16zM586 599l123 -11q10 0 17 6.5t7 16.5l-1 120q0 10 -6.5 16t-16 6t-16 -6.5t-6.5 -15.5l2 -121l24 23l-124 10q-9 1 -16 -5t-7.5 -15.5t5.5 -16.5t15 -7z" />
    <glyph glyph-name="uniE62E" unicode="&#xe62e;"
d="M809 299q25 53 16 111q-10 76 -67.5 122t-128 34.5t-113 -73.5t-32 -138t68 -122t128.5 -34q60 10 101 58q15 -12 78 -62t71 -56l27 40q-8 6 -71.5 57t-77.5 63zM675.5 236q-56.5 -9 -102 27.5t-54 97t25 110t90 58.5t102 -27.5t54.5 -97t-25 -110t-90.5 -58.5zM468 271
h-89q-4 0 -8 -2q-6 41 -37.5 68.5t-73.5 27.5q-47 0 -80 -33.5t-33 -80t33 -79.5t80 -33q39 0 69.5 24t39.5 62q5 -2 10 -2h111q-13 22 -22 48zM310.5 200.5q-21.5 -21.5 -51.5 -21.5t-51.5 21.5t-21.5 51.5t21.5 51.5t51.5 21.5t51.5 -21.5t21.5 -51.5t-21.5 -51.5z
M340 467q15 0 21 14q4 8 11 20t30.5 39t51.5 47t75.5 33.5t100.5 9.5q29 -1 61 -10q37 17 77 22q-34 17 -68 25.5t-47.5 9.5t-20.5 1q-53 5 -102 -7t-81 -30.5t-60 -45.5t-41.5 -45t-23.5 -36q-46 -4 -85.5 -21.5t-65.5 -39.5t-46.5 -51.5t-31.5 -54t-18.5 -50t-9.5 -35
t-2 -14.5q-2 -10 4.5 -18t16.5 -9h2q10 0 16.5 6t7.5 15l2 15q2 9 9 31.5t16.5 43t27.5 45t40.5 43t57 32t75.5 15.5z" />
    <glyph glyph-name="uniE62F" unicode="&#xe62f;"
d="M982 -15l-207 204q91 114 91 261q0 114 -56 210.5t-153 152.5t-210.5 56t-210.5 -56t-153 -152.5t-56 -210.5t56 -210.5t153 -152.5t211 -56q141 0 254 86l208 -205q15 -15 36 -15q22 0 37 15t15 36.5t-15 36.5zM124 450q0 88 43 162.5t117.5 117.5t162 43t162 -43
t117.5 -117.5t43 -162.5t-43 -162.5t-117.5 -117.5t-162 -43t-162 43t-117.5 117.5t-43 162.5zM622 401h-129v54h129q12 1 20 10t9 21q-1 12 -8 20t-20 9h-108l76 105q9 13 9 27q-2 11 -4 17q-4 6 -8 9q-5 4 -11 5q-6 2 -13 2q-12 -1 -21 -8q-10 -6 -16 -14l-81 -119
l-74 118q-7 8 -16 15t-21 8q-20 -2 -27.5 -10.5t-9.5 -22.5q0 -10 4 -20q4 -8 9 -15l66 -97h-107q-13 -1 -20 -9t-9 -20q2 -13 9 -21t20 -9l131 -1v-54h-131q-13 -1 -20 -9t-9 -20q2 -13 9 -23t20 -11h131v-117q1 -21 13 -31t33 -10q44 0 45 41v118h130q13 1 20 9.5t8 20.5
q-1 12 -8 21q-7 10 -20 11z" />
    <glyph glyph-name="uniE630" unicode="&#xe630;"
d="M608 572h-168q-24 0 -40.5 15.5t-16.5 37.5v59q0 22 16 38t38 16h5q7 26 30 42.5t52 16.5t52 -16.5t30 -42.5h5q22 0 38 -16t16 -38v-59q0 -22 -17 -37.5t-40 -15.5zM437 690q-6 0 -6 -6v-59q0 -5 9 -5h168q9 0 9 5v59q0 2 -2 4t-4 2h-27q-10 0 -17 7t-7 17v5
q0 13 -10.5 21.5t-25.5 8.5t-25.5 -8.5t-10.5 -21.5v-5q0 -10 -7 -17t-17 -7h-27zM762 -45h-477q-58 0 -99.5 41.5t-41.5 100.5v434q0 59 41.5 100.5t99.5 41.5h47q10 0 17 -7t7 -17t-7 -17t-17 -7h-47q-38 0 -65.5 -27.5t-27.5 -66.5v-434q0 -39 27.5 -66.5t65.5 -27.5h477
q39 0 66.5 27.5t27.5 66.5v434q0 39 -27.5 66.5t-66.5 27.5h-46q-10 0 -17 7t-7 17t7 17t17 7h46q59 0 100.5 -41.5t41.5 -100.5v-434q0 -59 -41.5 -100.5t-100.5 -41.5zM507 134q-9 0 -16 6l-143 123q-8 6 -8.5 16t6 17.5t16 8.5t17.5 -6l125 -107l225 261q6 8 16 8.5
t17.5 -6t8.5 -16t-6 -17.5l-240 -280q-6 -7 -16 -8h-2z" />
    <glyph glyph-name="uniE631" unicode="&#xe631;"
d="M730 188q-2 27 -18 49t-41 33l-30 140q-8 39 -42 66t-73 27h-235q-39 0 -72.5 -27t-41.5 -66l-30 -140q-25 -11 -41 -33t-18 -49l-7 -90q-2 -29 13 -53t41 -34q6 -24 25 -39t44 -15q23 0 41 13t26 34h276q7 -21 25.5 -34t41.5 -13q25 0 44 15t25 39q26 10 41 34t12 53z
M660 46q-14 -4 -15 -19q-1 -13 -10 -21.5t-21 -8.5t-21 8.5t-10 20.5q-1 8 -6.5 13t-13.5 5h-308q-8 0 -14 -5t-6 -13q-1 -12 -10 -20.5t-21 -8.5q-13 0 -22 8.5t-9 21.5q-1 15 -16 19q-17 4 -27 17.5t-9 31.5l7 90q1 18 13 32t30 20q12 3 14 16v4v2l31 143q5 25 27.5 43
t47.5 18h235q26 0 48 -18t28 -43l30 -143v-2t1 -4q1 -13 14 -16q17 -6 29 -20t14 -32l6 -90q2 -18 -8 -31.5t-28 -17.5zM254 251h309q12 0 18 8q7 8 5 19v1l-25 106q-2 12 -12.5 21t-23.5 9h-232q-13 0 -23.5 -9t-13.5 -21l-24 -106v-1q-2 -11 4 -19q7 -8 18 -8zM295 375
h227l20 -83h-266zM230 183q-19 0 -32 -13.5t-13 -32t13 -32t32 -13.5t32.5 13.5t13.5 32t-13.5 32t-32.5 13.5zM587.5 183q-18.5 0 -32 -13.5t-13.5 -32t13.5 -32t32 -13.5t32 13.5t13.5 32t-13.5 32t-32 13.5zM694 507l-23 -19l-89 103l34 29l60 -68l200 173l30 -34
l-201 -174zM536 536q-8 29 -10 44q-11 91 45.5 162t146.5 82t161.5 -45.5t82.5 -146.5t-45.5 -161.5t-146.5 -82.5q-50 -6 -98 11v-5q-1 -6 -0.5 -11.5t1.5 -6.5q49 -15 100 -9q99 12 161 91t50.5 178.5t-90.5 161.5t-178.5 50.5t-161.5 -90.5t-51 -179l11 -48z" />
    <glyph glyph-name="uniE632" unicode="&#xe632;"
d="M771 -63h-575q-40 0 -68 28t-28 68v639q0 40 28 68t68 28h448q13 0 22.5 -9t9.5 -22.5t-9.5 -23t-22.5 -9.5h-448q-13 0 -22.5 -9t-9.5 -23v-639q0 -13 9.5 -22.5t22.5 -9.5h575q14 0 23 9.5t9 22.5v511q0 14 9.5 23t23 9t22.5 -9t9 -23v-511q0 -40 -28 -68t-68 -28z
M583.5 449q-13.5 0 -22.5 9t-9 22.5t9 22.5l318 318q9 9 22.5 9t22.5 -9.5t9 -22.5t-9 -22l-318 -318q-9 -9 -22.5 -9zM452 449h-192q-13 0 -22.5 9t-9.5 22.5t9.5 22.5t22.5 9h192q13 0 22.5 -9t9.5 -22.5t-9.5 -22.5t-22.5 -9zM644 257h-384q-13 0 -22.5 9t-9.5 22.5
t9.5 23t22.5 9.5h384q13 0 22.5 -9.5t9.5 -23t-9.5 -22.5t-22.5 -9z" />
    <glyph glyph-name="uniE633" unicode="&#xe633;"
d="M723 157l-23 -19l-89 102l34 30l60 -69l200 174l30 -35l-201 -173zM962 204q7 0 7 -7v-16q0 -1 -1 -4q-8 -103 -83.5 -173.5t-179.5 -70.5q-109 0 -186.5 77t-77.5 186.5t77.5 186.5t186.5 77q97 0 171 -63l-43 -43q-56 46 -128 46q-84 0 -143.5 -59.5t-59.5 -144
t59.5 -144t143.5 -59.5q82 0 141 57t62 139h1v8q0 7 7 7h46zM216 566v45h512v-45h-151h-361zM215 204h181v-45h-181v45zM216 407h198v-46h-198v46zM818 747q0 12 -8.5 21t-21.5 9h-633q-13 0 -21.5 -9t-8.5 -21v-694q0 -12 8.5 -21t21.5 -9h294q23 -33 54 -60h-371
q-28 0 -48 20t-20 48v739q0 28 20 47.5t48 19.5h679q28 0 48 -19.5t20 -47.5v-318q-28 19 -61 32v263v0z" />
    <glyph glyph-name="uniE634" unicode="&#xe634;"
d="M716 188q-2 28 -18.5 50.5t-41.5 33.5l-30 142q-9 39 -43 67t-74 28h-238q-40 0 -74.5 -28t-42.5 -67l-30 -142q-25 -11 -41.5 -33.5t-18.5 -50.5l-7 -91q-2 -29 13 -53.5t42 -35.5q6 -24 25.5 -39t44.5 -15q23 0 41.5 13t26.5 34h280q8 -21 26.5 -34t41.5 -13
q25 0 44.5 15t25.5 39q27 11 42 35.5t13 53.5zM646 44q-15 -4 -16 -19q-1 -13 -10 -22t-22 -9q-12 0 -21 8.5t-10 20.5q-1 8 -7 13.5t-13 5.5h-314q-7 0 -13 -5.5t-7 -13.5q-1 -12 -10 -20.5t-21 -8.5q-13 0 -22 9t-10 22q-1 15 -16 19q-17 4 -27.5 18t-8.5 32l7 91
q1 18 13 32.5t30 20.5q13 3 15 17v3v2l31 146q5 25 28 43.5t49 18.5h238q26 0 49 -18.5t28 -43.5l31 -146v-2v-3q2 -14 15 -17q18 -6 30 -20.5t13 -32.5l7 -91q2 -18 -8.5 -32t-27.5 -18zM233 253h314q12 0 18 7q7 8 5 20v1l-25 107q-2 13 -13 22t-24 9h-236q-13 0 -24 -9
t-13 -22l-25 -107v-1q-2 -12 5 -19q6 -8 18 -8zM275 378h230l20 -84h-270zM209 183q-19 0 -32.5 -13.5t-13.5 -32.5t13.5 -32.5t32.5 -13.5t32.5 13.5t13.5 32.5t-13.5 32.5t-32.5 13.5zM571 183q-19 0 -32.5 -13.5t-13.5 -32.5t13.5 -32.5t32.5 -13.5t32.5 13.5t13.5 32.5
t-13.5 32.5t-32.5 13.5zM889 372q9 -2 14 -10q49 -78 66 -106q5 -8 3 -16.5t-9.5 -13.5t-16.5 -3t-14 9q-31 50 -67 108q-7 12 2 24q8 11 22 8zM515 534q-8 29 -10 45q-11 90 45.5 161.5t146.5 82t161.5 -45.5t82.5 -146.5t-45.5 -162t-146.5 -81.5q-50 -6 -97 10
q-1 1 -1 -4.5t1 -11.5v-6q49 -15 100 -9q99 12 161.5 90.5t50.5 178.5t-91 162t-178.5 50t-161.5 -91t-50 -178l11 -49z" />
    <glyph glyph-name="uniE635" unicode="&#xe635;"
d="M730 188q-2 27 -18 49t-41 33l-30 140q-8 39 -42 66t-73 27h-235q-39 0 -72.5 -27t-41.5 -66l-30 -140q-25 -11 -41 -33t-18 -49l-7 -90q-2 -29 13 -53t41 -34q6 -24 25 -39t44 -15q23 0 41 13t26 34h276q7 -21 25.5 -34t41.5 -13q25 0 44 15t25 39q26 10 41 34t12 53z
M660 46q-14 -4 -15 -19q-1 -13 -10 -21.5t-21 -8.5t-21 8.5t-10 20.5q-1 8 -6.5 13t-13.5 5h-308q-8 0 -14 -5t-6 -13q-1 -12 -10 -20.5t-21 -8.5q-13 0 -22 8.5t-9 21.5q-1 15 -16 19q-17 4 -27 17.5t-9 31.5l7 90q1 18 13 32t30 20q12 3 14 16v4v2l31 143q5 25 27.5 43
t47.5 18h235q26 0 48 -18t28 -43l30 -143v-2t1 -4q1 -13 14 -16q17 -6 29 -20t14 -32l6 -90q2 -18 -8 -31.5t-28 -17.5zM254 251h309q12 0 18 8q7 8 5 19v1l-25 106q-2 12 -12.5 21t-23.5 9h-232q-13 0 -23.5 -9t-13.5 -21l-24 -106v-1q-2 -11 4 -19q7 -8 18 -8zM295 375
h227l20 -83h-266zM230 183q-19 0 -32 -13.5t-13 -32t13 -32t32 -13.5t32.5 13.5t13.5 32t-13.5 32t-32.5 13.5zM587.5 183q-18.5 0 -32 -13.5t-13.5 -32t13.5 -32t32 -13.5t32 13.5t13.5 32t-13.5 32t-32 13.5zM536 536q-8 29 -10 44q-11 91 45.5 162t146.5 82t161.5 -45.5
t82.5 -146.5t-45.5 -161.5t-146.5 -82.5q-50 -6 -98 11v-5q-1 -6 -0.5 -11.5t1.5 -6.5q49 -15 100 -9q99 12 161 91t50.5 178.5t-90.5 161.5t-178.5 50.5t-161.5 -90.5t-51 -179l11 -48zM605 616q37 58 58 137l21 -7q-10 -32 -21 -59v-204h-20v158q-14 -27 -29 -49
q-5 15 -9 24zM792 753l-4 -7q35 -60 92 -87q-7 -8 -15 -19q-56 32 -88 88q-31 -53 -87 -93q-7 10 -14 18q62 39 91 100h25zM748 645v-39q0 -80 -46 -125q-8 8 -18 16q42 39 42 107v41h22zM806 645h22v-161h-22v161z" />
    <glyph glyph-name="uniE636" unicode="&#xe636;"
d="M730 188q-2 27 -18 49t-41 33l-30 140q-8 39 -42 66t-73 27h-235q-39 0 -72.5 -27t-41.5 -66l-30 -140q-25 -11 -41 -33t-18 -49l-7 -90q-2 -29 13 -53t41 -34q6 -24 25 -39t44 -15q23 0 41 13t26 34h276q7 -21 25.5 -34t41.5 -13q25 0 44 15t25 39q26 10 41 34t12 53z
M660 46q-14 -4 -15 -19q-1 -13 -10 -21.5t-21 -8.5t-21 8.5t-10 20.5q-1 8 -6.5 13t-13.5 5h-308q-8 0 -14 -5t-6 -13q-1 -12 -10 -20.5t-21 -8.5q-13 0 -22 8.5t-9 21.5q-1 15 -16 19q-17 4 -27 17.5t-9 31.5l7 90q1 18 13 32t30 20q12 3 14 16v4v2l31 143q5 25 27.5 43
t47.5 18h235q26 0 48 -18t28 -43l30 -143v-2t1 -4q1 -13 14 -16q17 -6 29 -20t14 -32l6 -90q2 -18 -8 -31.5t-28 -17.5zM254 251h309q12 0 18 8q7 8 5 19v1l-25 106q-2 12 -12.5 21t-23.5 9h-232q-13 0 -23.5 -9t-13.5 -21l-24 -106v-1q-2 -11 4 -19q7 -8 18 -8zM295 375
h227l20 -83h-266zM230 183q-19 0 -32 -13.5t-13 -32t13 -32t32 -13.5t32.5 13.5t13.5 32t-13.5 32t-32.5 13.5zM587.5 183q-18.5 0 -32 -13.5t-13.5 -32t13.5 -32t32 -13.5t32 13.5t13.5 32t-13.5 32t-32 13.5zM536 536q-8 29 -10 44q-11 91 45.5 162t146.5 82t161.5 -45.5
t82.5 -146.5t-45.5 -161.5t-146.5 -82.5q-50 -6 -98 11v-5q-1 -6 -0.5 -11.5t1.5 -6.5q49 -15 100 -9q99 12 161 91t50.5 178.5t-90.5 161.5t-178.5 50.5t-161.5 -90.5t-51 -179l11 -48zM625 708h117q-7 11 -16 23l19 11q11 -14 19 -26l-12 -8h118v-50h-21v31h-204v-31h-20
v50zM648 652h89v29h21v-29h88v-132h-19v13h-69v-59h-21v59h-69v-13h-20v132zM668 602h69v31h-69v-31zM668 552h69v31h-69v-31zM827 633h-69v-31h69v31zM758 552h69v31h-69v-31z" />
    <glyph glyph-name="uniE637" unicode="&#xe637;"
d="M485 625q11 23 26.5 23t26.5 -23l64 -135q11 -24 37.5 -43.5t51.5 -23.5l138 -21q26 -4 31 -19.5t-13 -34.5l-101 -104q-19 -18 -29 -49.5t-5 -57.5l24 -149q4 -26 -9 -35t-36 3l-124 69q-23 12 -55.5 12t-54.5 -12l-125 -69q-23 -12 -36 -3t-9 35l25 149q4 26 -6 57.5
t-28 49.5l-102 104q-18 19 -12.5 34.5t30.5 19.5l138 21q26 4 52 23.5t37 43.5z" />
    <glyph glyph-name="uniE638" unicode="&#xe638;"
d="M512 748q-185 0 -316.5 -131.5t-131.5 -316.5t131.5 -316.5t316.5 -131.5t316.5 131.5t131.5 316.5t-131.5 316.5t-316.5 131.5zM641 236q13 0 22.5 -9.5t9.5 -22.5t-9.5 -22.5t-22.5 -9.5h-97v-95q0 -13 -9.5 -22.5t-22.5 -9.5t-22.5 9.5t-9.5 22.5v95h-95
q-13 0 -22.5 9.5t-9.5 22.5t9.5 22.5t22.5 9.5h95v64h-95q-13 0 -22.5 9.5t-9.5 22.5t9.5 22.5t22.5 9.5h95v20l-118 118q-10 10 -9.5 23t9.5 22.5t22.5 9.5t22.5 -9l108 -108l101 107q10 10 23 10t22.5 -9t10 -22t-9.5 -23l-118 -124v-15h97q13 0 22.5 -9.5t9.5 -22.5
t-9.5 -22.5t-22.5 -9.5h-97v-64h97z" />
    <glyph glyph-name="uniE639" unicode="&#xe639;"
d="M1004 298q0 -100 -39 -191t-104.5 -157t-156.5 -104.5t-191 -38.5t-191 38.5t-157 104.5t-105 157t-39 191t39 191t105 157t157 104.5t191 38.5t191 -38.5t156.5 -104.5t104.5 -157t39 -191zM513 724q-116 0 -214 -57t-155 -155t-57 -214t57 -214t155 -155t214 -57
t214 57t155 155t57 214t-57 214t-155 155t-214 57z" />
    <glyph glyph-name="uniE63A" unicode="&#xe63a;"
d="M512 300zM16 300q0 101 39 193t105.5 158.5t158.5 105.5t193 39t193 -39t158.5 -105.5t105.5 -158.5t39 -193t-39 -193t-105.5 -158.5t-158.5 -105.5t-193 -39t-193 39t-158.5 105.5t-105.5 158.5t-39 193z" />
    <glyph glyph-name="uniE63B" unicode="&#xe63b;"
d="M719 740h-436q-90 0 -154 -63.5t-64 -154.5v-435q0 -91 64 -154.5t154 -63.5h436q90 0 153.5 63.5t63.5 154.5v435q0 91 -63.5 154.5t-153.5 63.5z" />
    <glyph glyph-name="uniE63C" unicode="&#xe63c;" horiz-adv-x="1025"
d="M899 779l-387 -388l-387 388q-22 21 -52 21t-51.5 -21.5t-21.5 -51.5t21 -52l388 -387l-388 -387q-21 -22 -21 -52t21.5 -51.5t51.5 -21.5t52 21l387 388l387 -388q22 -21 52 -21t51.5 21.5t21.5 51.5t-21 52l-388 387l388 387q21 22 21 52t-21.5 51.5t-51.5 21.5
t-52 -21z" />
    <glyph glyph-name="uniE63D" unicode="&#xe63d;"
d="M739 754h-454q-94 0 -160.5 -66.5t-66.5 -160.5v-454q0 -94 66.5 -160.5t160.5 -66.5h454q94 0 160.5 66.5t66.5 160.5v454q0 94 -66.5 160.5t-160.5 66.5zM890 73q0 -63 -44.5 -107t-106.5 -44h-454q-63 0 -107 44t-44 107v454q0 62 44.5 106.5t106.5 44.5h454
q62 0 106.5 -44.5t44.5 -106.5v-454z" />
    <glyph glyph-name="uniE63E" unicode="&#xe63e;" horiz-adv-x="1031"
d="M544 339q-17 0 -27.5 -10t-15.5 -23t-18.5 -26t-34.5 -18l-19 -6q-16 -3 -20.5 -4t-10.5 -4.5t-7 -8.5t-1 -15q0 -32 26 -32h77v-211q0 -26 8 -38.5t30 -12.5q39 0 39 51v320q0 38 -26 38zM294 550h13q15 0 23.5 9t8.5 23v154q0 14 -8.5 23t-23.5 9h-13q-14 0 -23 -9
t-9 -23v-160q0 -10 9.5 -18t22.5 -8zM710 550h13q15 0 23.5 9t8.5 23v154q0 14 -8.5 23t-23.5 9h-13q-14 0 -23 -9t-9 -23v-160q0 -9 11 -17.5t21 -8.5zM890 691h-84v-57h84q28 0 49 -21t21 -50v-64h-902v64q0 29 20.5 50t49.5 21h83v57h-77q-56 0 -95 -40t-39 -94v-621
q0 -54 39 -94t95 -40h762q54 0 94 38.5t40 95.5v621q-5 54 -44.5 94t-95.5 40zM890 -134h-756q-28 0 -49 20.5t-21 49.5v499h902v-493q0 -33 -21.5 -54.5t-54.5 -21.5zM384 691h256v-57h-256v57z" />
    <glyph glyph-name="uniE63F" unicode="&#xe63f;"
d="M864 242q0 -95 -47 -176t-128 -128.5t-177 -47.5t-177 47.5t-128 128.5t-47 176.5t47 176.5t128 128t177 47q36 0 70 -7l-90 -91l44 -45l162 161l-162 162l-44 -45l74 -74l-54 3q-113 0 -208.5 -55.5t-151.5 -151.5t-56 -208.5t56 -208.5t151.5 -152t208.5 -56t208.5 56
t151.5 152t56 208h-64z" />
    <glyph glyph-name="uniE641" unicode="&#xe641;"
d="M324 153l42 -42l102 37l-107 107zM513.5 749q-91.5 0 -174.5 -35.5t-143.5 -96t-96 -143.5t-35.5 -174.5t35.5 -174.5t96 -143t143.5 -95.5t174.5 -35.5t174.5 35.5t143 95.5t95.5 143t35.5 174.5t-35.5 174.5t-95.5 143.5t-143 96t-174.5 35.5zM491 125v1q-3 -2 -5 -3
l-206 -75q-9 -3 -16 3q-7 7 -3 16l75 206q1 2 3 5h-1l186 186l37 -37l-146 -145q-3 -4 -3 -9t3.5 -8.5t8.5 -3.5t8 4l146 145l45 -45l-145 -145q-8 -8 0 -17q4 -3 9 -3t8 3l145 145l37 -37zM751 386l-58 -58l-65 64l-87 88l58 58q16 16 38 16t38 -16l76 -77q16 -15 16 -37.5
t-16 -37.5z" />
    <glyph glyph-name="uniE642" unicode="&#xe642;"
d="M512 779q-97 0 -186 -38t-153 -102t-102 -153t-38 -186.5t38 -186t102 -152.5t153 -102t186 -38t186 38t153 102t101.5 152.5t37.5 186t-37.5 186.5t-101.5 153t-153 102t-186 38zM510.5 18.5q-27.5 -15.5 -44.5 -15.5q-16 0 -24.5 9.5t-8.5 26.5q0 55 65 267q3 10 3 18
q0 9 -8 9q-9 0 -20 -7t-49 -45l-19 15q43 48 79 68.5t61 20.5q14 0 21.5 -6.5t7.5 -16.5q0 -13 -28 -108q-46 -155 -46 -187q0 -6 3 -10t6 -4q14 0 72 54l17 -16q-60 -57 -87.5 -72.5zM613 504.5q-13 -14.5 -30 -14.5q-13 0 -22 9t-9 24q0 20 13 33.5t30 13.5q14 0 22.5 -9
t8.5 -23q0 -19 -13 -33.5z" />
  </font>
</defs>
</svg>
